<?xml version="1.0" encoding="utf-8"?>
<!-- Generator: Adobe Illustrator 13.0.1, SVG Export Plug-In . SVG Version: 6.00 Build 14948)  -->
<!DOCTYPE svg PUBLIC "-//W3C//DTD SVG 1.1//EN" "http://www.w3.org/Graphics/SVG/1.1/DTD/svg11.dtd">
<svg version="1.1" id="patents-10_xA0_Image_1_" xmlns="http://www.w3.org/2000/svg" xmlns:xlink="http://www.w3.org/1999/xlink"
	 x="0px" y="0px" width="427px" height="587px" viewBox="0 0 427 587" enable-background="new 0 0 427 587" xml:space="preserve">
<g>
	<path fill-rule="evenodd" clip-rule="evenodd" d="M298,169c3.077,2.176,0.578,10.583,0,17c-0.283,3.141,0.998,6.353-1,8
		c0-3,0-6,0-9C298.216,180.549,298.087,174.753,298,169z"/>
	<path fill-rule="evenodd" clip-rule="evenodd" d="M285,178c1.162-0.163,1.779,0.221,2,1c0.322,3.231-1.54,7.167-2,11
		c-0.499,4.159,2.027,10.286-2,12C284.662,194.996,283.557,185.224,285,178z"/>
	<path fill-rule="evenodd" clip-rule="evenodd" d="M271,187c1.701-0.368,1.887,0.78,2,2c-2.251,6.427-0.043,22.609-3,25
		C269.669,204.336,271.772,197.106,271,187z"/>
	<path fill-rule="evenodd" clip-rule="evenodd" d="M289,220c4.794,0.352-2.136,2.995-2,5c-0.204,3.129,0.675,7.341-1,9
		c0.132,1.314,0.151,7.235-1,4c-0.755-6.088,1.599-9.068,1-15C287.889,222.889,286.694,219.694,289,220z"/>
	<path fill-rule="evenodd" clip-rule="evenodd" d="M256,225c-0.717,2.616-3.263,3.404-4,6c-0.405,2.978,0.969,12.902-1,11
		c0-4.333,0-8.667,0-13C252.995,227.995,252.578,224.578,256,225z"/>
	<path fill-rule="evenodd" clip-rule="evenodd" d="M212,236c4.27,4.778,1.277,12.468,1,19c-0.608,14.333,0.456,30.77,0,46
		c-2.589-3.312-1.068-8.985-1-14C212.202,272.034,211.849,251.864,212,236z"/>
	<path fill-rule="evenodd" clip-rule="evenodd" d="M176,260c1.786,23.564,1.286,54.188,1,74
		C174.787,311.859,176.502,280.526,176,260z"/>
	<path fill-rule="evenodd" clip-rule="evenodd" d="M217,267c1.915,5.386,0.461,12.478,0,17C215.2,280.497,215.528,270.556,217,267z"
		/>
	<path fill-rule="evenodd" clip-rule="evenodd" d="M216,298c2.235,9.163,0.402,32.324,1,47C214.765,335.837,216.598,312.676,216,298
		z"/>
	<path fill-rule="evenodd" clip-rule="evenodd" d="M212,302c2.058,9.457,1.089,28.542,0,35C210.294,327.618,210.389,311.396,212,302
		z"/>
	<path fill-rule="evenodd" clip-rule="evenodd" d="M116,303c1.662,6.163,1.332,19.119,1,24C115.148,321.027,115.97,307.579,116,303z
		"/>
	<path fill-rule="evenodd" clip-rule="evenodd" d="M94,333c4.671,1.329,0.101,11.899,3,15C92.89,346.11,95.993,337.007,94,333z"/>
	<path fill-rule="evenodd" clip-rule="evenodd" d="M145,355c1.163-0.162,1.779,0.221,2,1c0,7.239,0,12.466,0,20
		c0,16.418-0.335-13.256-1-18C145.955,357.681,144.293,356.298,145,355z"/>
	<path fill-rule="evenodd" clip-rule="evenodd" d="M215,386c1.163-0.162,1.779,0.221,2,1c-1.948,4.579,2.924,15.358-2,19
		C215,399.333,215,392.667,215,386z"/>
	<path fill-rule="evenodd" clip-rule="evenodd" d="M325,389c3.062,4.436-1.261,10.042,0,16c-1.749,4.58-0.745-9.557-1-13
		C325.172,391.839,324.844,390.177,325,389z"/>
	<path fill-rule="evenodd" clip-rule="evenodd" d="M275,423c3.044,4.765-1.241,19.74,0,29C271.718,446.646,275.633,432.262,275,423z
		"/>
	<path fill-rule="evenodd" clip-rule="evenodd" d="M215,430c3.085,17.423-1.244,36.086,0,55
		C213.039,468.701,213.749,446.418,215,430z"/>
	<path fill-rule="evenodd" clip-rule="evenodd" d="M125,452c0.973,0.027,0.776,1.224,1,2c-0.651,5.349,1.313,13.313-1,17
		C125.436,462.575,123.055,457.403,125,452z"/>
	<path fill-rule="evenodd" clip-rule="evenodd" d="M243,490c3.104-0.838-0.257,32.689,0,10C243,496.667,243,493.333,243,490z"/>
	<path fill-rule="evenodd" clip-rule="evenodd" d="M104,494c1.463,2.968,1.727,16.811,2,24C103.457,511.876,104.048,502.619,104,494
		z"/>
	<path fill-rule="evenodd" clip-rule="evenodd" d="M272,511c-3.549-2.14-0.619-12.627,0-17C272,499.667,272,505.333,272,511z"/>
	<path fill-rule="evenodd" clip-rule="evenodd" d="M214,507c2.198,1.158,0.432,14.884,1,21C212.802,526.842,214.568,513.116,214,507
		z"/>
	<path fill-rule="evenodd" clip-rule="evenodd" d="M244,18c1.47,6.864,1.575,15.092,2,23c24.812,4.155,51.178,5.668,79,13
		c7.921,2.087,16.249,4.361,24,7c14.226,4.844,28.046,5.103,31,20c12.379,3.621,17.787,14.213,19,29c1.139,3.861,8.655,1.345,9,6
		c-1.364,3.971,1.93,5.103,2,8c0.136,5.603-5.818,13.111-11,16c-8.057,4.492-20.107,0.88-26,6
		c-12.915,105.895-22.163,225.007-34,337c-0.786,7.435-0.628,15.292-2,22c-0.416,2.033-2.266,3.826-3,6
		c-2.351,6.953-1.849,15.559-5,22c-3.656,7.473-11.261,16.123-17,20c-26.099,17.631-74.126,31.869-113,31
		c-25.755-0.576-54.868-6.516-78-16c-17.72-7.265-35.623-18.622-45-33c-4.555-6.983-6.334-18.188-11-28
		c-9.194-121.712-19.231-241.159-31-364c-9.82-4.777-16.03-9.877-21-22c-3.025-7.377-4.95-10.751-2-18c0.814-2.002,3.016-2.323,4-4
		c1.794-3.057,2.846-7.635,5-10c2.74-3.009,8.017-3.621,11-7c3.519-3.985,4.691-11.323,8-14c5.321-4.304,17.949-7.913,28-11
		c27.391-8.412,67.708-14.404,98-16c2.856-12.962-2.113-26.188,12-29c8.196-1.633,23.932,1.469,36,2
		C225.387,14.544,237.516,12.236,244,18z M175,15c-0.61,0.057-1.184,0.149-1,1c13.07,0.357,41.715,3.049,60,1
		C216.055,15.193,191.721,14.729,175,15z M173,18c-1.182,0.485-2.267,1.066-3,2c-2.111,8.222-1.165,19.501-3,28
		c28.229-0.547,47.729-2.982,71,3c-0.013-8.408,0.838-20.757-1-30C217.025,17.079,193.172,19.687,173,18z M204,114
		c14.258-0.075,29.141,0.474,42-1c-2.872-11.397-10.278-21.518-17-32c-6.797-10.6-13.842-21.381-21-31c-1.003,0.003-1.19-0.81-2-1
		C204.52,69.212,201.963,93.595,204,114z M156,111c14.841,2.7,26.583,2.395,43,3c0.114-22.712,3.82-45.328,1-64
		C184.517,69.517,168.191,88.191,156,111z M251,112c12.253,0.253,22.065-1.935,33-3c-18.132-24.535-45.467-45.199-72-58
		C227.389,68.944,240.889,88.778,251,112z M127,99c-2.465,2.078-8.111,3.47-7,8c11.134,0.532,20.437,2.897,31,4
		c4.075-5.592,8.567-10.767,11-18c6.546-5.299,10.715-14.056,16-21c5.564-7.312,13.26-13.135,15-21
		C170.783,65.895,146.289,82.738,127,99z M133,54c4.226-3.289,0.026-1.007-1-1c-20.62,0.136-53.873,6.09-75,12
		c-7.883,2.205-16.713,4.59-17,13C68.945,67.945,99.53,59.53,133,54z M111,86c-7.682,4.117-16.268,7.598-22,14
		c9.012,1.322,16.9,3.767,26,5c15.978-14.212,35.44-28.225,53-40c5.843-3.918,12.605-7.504,16-13
		C159.534,63.304,133.462,73.962,111,86z M292,108c8.826-2.841,20.693-2.64,28-7c-27.292-20.374-60.078-35.256-94-49
		c-1.177,0.157-2.839-0.172-3,1C249.726,67.607,271.179,87.488,292,108z M343,74c8.67,3.273,16.385,7.921,25,9
		c2.189-11.292-11.655-11.604-19-14c-27.198-8.873-62.498-16.925-92-16C286.983,58.618,317.381,64.328,343,74z M169,54
		c-27.952,7.806-54.685,17.985-78,28c-8.756,3.761-18.127,6.356-24,12c5.655-0.277,10.908,4.833,17,4c2.8-0.383,6.037-3.646,10-6
		c24.315-14.444,53.236-26.545,77-38C170.333,54,169.667,54,169,54z M336,61c10.176,2.416,19.657,8.093,29,8
		c-17.508-6.828-38.819-15.178-61-14C315.031,56.568,325.558,58.521,336,61z M254,56c23.041,7.035,52.646,16.269,76,26
		c12.698,5.291,26.662,18.412,34,4C332.197,72.376,287.931,59.817,254,56z M74,79c-7.547,2.731-15.912,5.024-21,11
		c4.195-0.528,5.586,1.747,9,2c27.306-13.694,56.736-25.264,88-35C121.892,61.574,97.136,70.628,74,79z M121,59
		c-23.842,6.158-50.318,9.681-70,20c-4.664-0.664-6.424,1.576-10,2c4.96,12.236,14.903,1.493,24-2c18.832-7.229,42.719-13.698,58-20
		C122.333,59,121.667,59,121,59z M326,101c7.381-1.286,13.006-4.327,21-5c-4.758-6.45-13.868-7.758-21-11
		c-7.683-3.492-15.27-5.987-23-9c-15.515-6.046-30.892-13.786-47-15C281.727,71.939,305.685,84.648,326,101z M364,93
		c9.941,1.769,6.634-14.063,12-11c-2.258-1.742-0.654-7.346-4-8C374.058,81.558,369.201,89.506,364,93z M69,104
		c-1.953-1.714-5.596-1.737-8-3c-1.119,3.214-2.737,5.93-3,10c2.386,0.964,6.406,3.3,9,1C66.669,108.336,68.11,106.444,69,104z
		 M77,117c1.867-2.133,1.357-6.643,4-8c0.57,3.92-3.469,6.237-1,9c32.064,7.603,66.262,13.071,103,16
		c-53.488-0.185-102.126-13.869-146-27c-6.217-3.958-8.909-13.892-8-22c-3.801,4.291-7.838,3.677-9,9
		c-3.341,15.308,13.897,16.747,26,21c9.851,3.461,19.894,6.342,25,7c2.541,1.875,0.459,2.125,3,4c3.769,0.769,4.78-1.22,8-1
		c49.203,14.398,120.928,19.703,171,14c4.453,5.135,18.498-0.912,23-2c15.212-3.676,36.247-6.117,56-11c8.787-2.172,17.714-4.6,26-7
		c18.893-5.472,37.764-8.47,32-29c-2.793-0.612-8.137-7.972-9-4c3.113,12.443-0.661,19.57-9,24c-11.829,6.284-33.647,9.166-56,14
		c-20.421,4.416-41.95,8.867-61,10c-23.301,1.386-48.483,4.213-71,0c34.878,0.502,62.208-0.417,93-4c0.347-2.759-2.871-7.022,0-9
		c0.042,3.292,1.688,4.979,1,9c3.671-0.663,7.603-1.064,11-2c-0.408-2.004-2.477-7.417,0-9c-0.061,3.727,1.009,6.325,2,9
		c7.991-2.799,14.296-1.092,21-5c-0.841-2.492-1.309-5.357-1-9c-4.449-0.783-6.002,1.332-10,1c-0.619,2.714,1.27,7.936-1,9
		c-0.198-3.469,0.354-7.687-3-8c-70.611,13.523-165.396,7.102-227-12C66.188,111.965,67.447,116.298,77,117z M35,102
		c4.047,0.347,5.727-8.794,2-10C37.144,96,32.583,98.853,35,102z M38,104c1.987,0.013,1.271,2.729,4,2c0.75-3.25,1.811-6.189,3-9
		c-1.987-0.013-1.271-2.729-4-2C40.675,98.675,38.533,100.533,38,104z M43,107c3.059-0.725,2.941,1.725,6,1
		c-0.245-4.245,2.616-5.384,2-10c-1.742,0.075-3.11-0.223-4-1C45.623,100.29,44.027,103.36,43,107z M372,108
		c-0.604-3.729,0.427-9.093-3-10C369.604,101.729,368.573,107.093,372,108z M50,109c1.289,1.378,4.344,0.99,7,1
		c0.084-3.583,1.555-5.778,2-9c-1.869-0.798-3.663-1.671-6-2C51.502,101.836,50.915,105.582,50,109z M366,110
		c3.018-0.497,1.446-9.747-1-11C361.996,100.005,361.694,110.23,366,110z M360,112c2.256-2.323,0.917-9.534-1-11
		C355.777,102.224,356.182,111.743,360,112z M351,114c1.333,0,2.667,0,4,0c1.51-2.75,0.324-9.91-3-11
		C347.99,104.853,351.201,110.051,351,114z M343,116c2.465,0.132,4.818,0.151,6-1c-0.2-3.799-0.885-7.115-2-10
		C339.628,104.785,343.395,110.394,343,116z M334,108c-0.722,1.452-0.257,8.4,1,11c2.275-0.724,5.108-0.892,7-2
		c0.332-3.999-1.782-5.551-1-10C337.531,106.198,337.156,108.489,334,108z M324,111c0.271,3.395-0.774,8.107,1,10
		c3.664,0.331,5.557-1.11,8-2c0.238-4.239-0.919-7.081-2-10C328.725,109.724,325.892,109.892,324,111z M313,113
		c-1.057,4.071,0.281,4.737,0,10c4.238,0.239,7.081-0.919,10-2C323.763,113.58,320.917,108.825,313,113z M20,126
		c0.473-3.525,4.732-12.813,1-14C21.179,116.546,17.436,122.39,20,126z M390,126c5.362-0.168,2.128-11.972,0-14
		C388.07,116.024,390.943,120.062,390,126z M22,130c5.58-0.967,4.926-12.781,5-16c-1.278-0.055-1.385-1.282-3-1
		C23.821,119.154,21.246,122.913,22,130z M396,118c4.402,1.427,6.274,0.398,8-3C400.835,112.335,396.962,115.366,396,118z M29,133
		c2.999-3.233,4.429-12.586,3-17c-1,0-2,0-3,0C29.024,121.324,23.38,131.332,29,133z M388,131c-0.372-5.628,1.05-13.05-3-15
		C385.298,121.702,384.687,128.314,388,131z M37,136c2.56-4.44,2.624-11.376,4-17c-2.348-0.319-3.753-1.58-7-1
		C34.772,124.748,27.695,135.276,37,136z M383,135c1.463-4.447,1.036-14.804-3-17C380.607,124.059,379.945,131.389,383,135z M39,136
		c2.162,0.838,3.411,2.589,7,2c0.2-6.134,3.063-9.604,3-16c-2.162-0.838-3.411-2.589-7-2C41.517,125.85,40.317,130.984,39,136z
		 M379,137c-0.049-6.285-0.96-11.707-2-17c-1,0-2,0-3,0C376.219,125.115,373.381,135.286,379,137z M394,122
		c3.155,1.178,1.771,6.896,6,7c0.939-3.954,0.78-5.798-1-9C396.52,119.853,394.147,119.814,394,122z M372,140
		c2.669-3.346,1.934-16.98-3-19C367.64,125.963,368.499,136.637,372,140z M47,139c2.675,0.992,5.273,2.061,9,2
		c0.148-5.519,1.46-9.874,3-14c0.771,6.437-2.502,8.832-2,15c3.222,0.445,5.417,1.916,9,2c0.443-1.89-1.36-6.027,2-5
		c-1.368,1.278-1.368,4.722,0,6c17.581,5.086,37.179,8.154,56,12c1.928-1.738,0.389-6.944,4-7c9.434-0.767,14.566,2.767,24,2
		c0,1.667,0,3.333,0,5c13.048,6.627,30.285,6.396,47,7c30.559,1.105,64.898-2.556,92-7c-1.646-0.136-1.646-6.864,0-7
		c0.319,2.348,1.58,3.753,1,7c5.118,0.785,7.264-1.402,12-1c-1.026-5.307-2.222-10.445-2-17c-20.88,1.936-38.24,5.513-57,7
		c-10.245,0.812-24.397-2.755-31,1c-12.298-3.139-27.537,0.063-41-1c-26.046-2.057-50.211-5.389-74-11c-7.75-1.828-17.1-2.34-24-5
		c-0.803-0.31-2.033-2.75-3-3c-3.504-0.908-8.093,0.107-12-1c-2.958-0.838-4.757-3.187-8-3c-0.667,0-1.333,0-2,0
		C50.49,129.823,47.233,132.9,47,139z M364,142c0.15-1.85,3.387-0.614,4-2c-0.738-5.596-1.869-10.798-2-17
		C357.181,122.084,362.134,138.364,364,142z M356,144c7.907-0.659,2.197-12.275,3-18c-1.333,0-2.667,0-4,0
		C353.381,130.3,355.075,139.005,356,144z M346,129c2.528,4.472-1.18,15.18,4,17c6.142-1.801,1.658-12.692,2-18
		C349.535,127.868,347.182,127.849,346,129z M338,130c-0.626,3.853-0.059,12.756,1,18c3.589,0.589,4.838-1.162,7-2
		C344.146,139.068,348.264,127.202,338,130z M327,134c1.721,4.279,0.434,11.567,2,16c3.769,0.769,4.78-1.22,8-1
		c-1.244-5.089-0.441-12.226-2-17C331.336,131.669,329.443,133.11,327,134z M316,137c1.199,4.468,0.296,11.037,2,15
		c1.329,1.035,6.688,0.037,9-1c-0.272-6.061-0.637-12.03-2-17C320.71,133.709,318.393,135.392,316,137z M384,141
		c5.312,2.193,9.088-6.288,5-7C388.866,137.866,384.944,137.944,384,141z M303,139c1.595,5.405-0.429,14.429,4,17
		c1.511-2.489,6.748-1.252,9-3c0.321-6.321-2.568-9.432-2-16C309.633,136.966,306.202,137.868,303,139z M43,188
		c-0.064-0.286,1.106,6.354,3,3c-3.138-14.604-3.138-30.299-4-45c-0.211-1.122-1.11-1.557-2-2C42.617,157.024,40.397,176.368,43,188
		z M48,146c-2.564,10.823,4.439,32.479,0,39c0.059-7.748-0.478-15.346-1-22c-0.412-5.254,0.782-14.75-4-18
		c1.181,11.097,1.664,24.814,3,35c0.438,3.336-0.55,8.537,3,10c-0.109-2.488-1.874-3.096,0-5c2.2,1.467-0.385,7.719,5,6
		c-0.249-6.055-2.48-14.554,0-22c0.902,12.395-1.17,22.963,6,30c-0.275-7.64-1.777-16.98-1-24c1.815,8.689,1.512,14.078,2,23
		c1.419,1.675,4.213-3.73,9-2c4.901,3.432,9.347,7.32,9,16c3.875,0.542,0.865-5.802,4-6c8.304-9.834,20.237,2.987,22,13
		c3.476,19.74-1.495,54.263,4,68c0.254-10.562-1.47-20.847-2-33c-0.701-16.054-3.835-43.823,10-45c21.754-1.851,15.406,33.514,17,53
		c4.363,53.328,3.858,112.499,6,160c2.784-0.45-0.784,5.45,2,5c-2.569-54.136-2.421-124.221-5-181c-0.629-13.861-2.499-28.217,8-31
		c19.02-5.042,21.53,12.974,22,27c1.038,30.969,1.334,64.174,2,98c0.605,30.766,1.351,62.964,2,89c0.176,7.065-2.58,13.281,1,19
		c-1.531-59.725-0.635-142.482-2-203c-0.328-14.542,1.509-27.928,16-28c11.932-0.06,15.949,9.598,17,19c2.231,19.952,0,43.73,0,67
		c0,92.443,0.221,182.97-1,261c3.736-0.756,1.913-5.781,2-8c0.988-25.236,0.264-57.021,1-79c2.148-64.105,1-141.803,1-201
		c0-24.458-4.542-62.691,21-59c16.861,2.437,12.933,33.465,12,54c-2.853,62.808-3.267,137.752-5,193c0,1.333,0,2.667,0,4
		c0,1.667,0,3.333,0,5c0,3.333,0,6.667,0,10c2.27-1.063,0.381-6.286,1-9c0-3.333,0-6.667,0-10c3.271-59.675,4.229-153.952,7-217
		c0.304-6.899-0.936-12.712,0-18c1.76-9.95,12.069-15.297,23-14c11.178,5.949,6.802,23.833,6,42c-2.18,49.404-3.984,96.621-6,141
		c-0.4,8.821-2.872,16.94,0,25c1.846-45.728,5.806-101.079,8-151c1.029-23.422-2.056-51.846,11-61c-1.641,0.164-1.641-6.164,0-6
		c1.867,1.778-0.812,2.542,0,6c3.83-2.17,11.243-0.757,13-5c0.289,5.254,5.278,8.709,6,14c0.656,4.81-1.693,11.024-2,17
		c-2.293,44.698-6.852,92.581-7,133c2.689-35.948,6.261-85.547,9-124c0.834-11.705,0.227-26.507,4-34c2.163-4.295,8.979-6.406,11-11
		c-0.749-14.807,2.927-30.329,2-42c-2.288,1.045-6.032,0.635-8,2c-2.132,13-1.374,37.196-6,51c0.664-16.673,4.818-35.178,3-51
		c-4.209,1.458-10.147,1.186-10,7c0.351-6.848-6.526-4.46-11-3c-2.933,1.4,0.933,9.6-2,11c-3.223-2.679,3.061-9.495-2-11
		c-34.328,5.719-77.099,5.893-116,4c-2.864,0.136,0.864,6.864-2,7c-4.468-2.374-8.238,0.768-14,0c-4.587-1.413-5.881-6.119-13-5
		c-2.231-3.437-0.699,5.207-5,3c-4.729,0.395-8.346-0.321-12-1c-1.483-1.184-1.556-3.777-3-5c-1.407-2.863,3.103-5.458-1-5
		c-16.87-4.13-35.399-6.601-51-12c-2.111,3.815,1.51,9.072-1,12c-2.203-5.131,0.151-14.818-8-14c-1.197,10.375,3.3,18.741,0,25
		c0.654-4.042-0.633-8.942-1-13c-0.428-4.734,2.841-12.629-4-13c-2.366,3.256,2.634,16.574-1,20
		C50.402,157.716,53.96,152.568,48,146z M357,190c2.476,0.403,2.749-3.699,3-5c2.119-10.962,0.354-25.332,3-34
		c-0.224-0.776-0.027-1.973-1-2C358.59,160.923,359.06,176.726,357,190z M352,191c2.793-2.047,3.462-7.117,4-11
		c1.199-8.656,0.527-19.552,2-28c-0.221-0.779-0.838-1.163-2-1C355.259,164.925,354.227,178.561,352,191z M348,201
		c3.646-14.021,4.081-31.252,5-48c1.052-0.055,0.787-1.282-1-1C350.176,167.18,346.668,185.997,348,201z M342,197
		c3.837,0.068,3.551-6.117,4-9c1.825-11.704,0.901-25.476,3-35c-1,0-2,0-3,0C343.835,166.835,342.497,181.497,342,197z M335,199
		c3.314,0.297,4.413-3.916,5-6c2.99-10.623,0.316-27.573,3-39c-1,0-2,0-3,0C336.958,167.625,337.04,184.374,335,199z M127,162
		c5.527,1.139,11.718,1.616,17,3c1.583-11.928-9.208-5.913-17-9C127,158,127,160,127,162z M333,156c-0.239,1.427-1.646,1.687-2,3
		c-2.062,46.684-7.919,91.335-8,138c3.364-27.271,2.909-55.772,6-83c0.562-4.954,3.309-10.053,4-15c1.51-10.798,2.131-23.159,3-33
		c0.246-2.78,2.269-8.129-1-10C334.333,156,333.667,156,333,156z M323,158c-3.131,13.339-2.299,32.052-4,44
		c2.239,1.094,5.011,1.656,7,3c1.119-15.881,1.841-32.159,4-47C327.667,158,325.333,158,323,158z M44,231
		c6.333,78.266,13.015,156.431,20,238c1.131,13.207,1.323,27.048,5,40c-2.417-49.834-7.377-104.507-12-158
		c-4.615-53.397-9.788-107.598-14-160c-1.427-0.239-1.687-1.646-3-2C41.166,201.873,42.838,216.64,44,231z M347,348
		c-5.377,53.337-10.377,106.914-14,159c11.222-104.113,22.949-213.05,31-317C357.668,241.692,352.368,294.746,347,348z M65,409
		c2.231,0.147-1.298,2.52,0,5c1.464,2.32,3.169-1.953,3,2c-0.012,1.321-1.752,0.914-2,2c4.251-0.191,1.137,6.268,1,8
		c1.22,0.113,2.368,0.299,2,2c-1.119,4.715,0.298,6.106-1,11c4.528,3.646,0.852,21.179,4,26c-1.593,0.087-1.881,0.334-2,2
		c-0.47,6.606,2.165,16.502,4,22c-2.934,1.98-1.551,7.081,1,9c-2.946,2.413,0.956,7.719,1,13c0.028,3.427-3.837,7.67,0,10
		c0.17-1.496-0.357-3.69,1-4c-0.907,6.241,3.221,7.445,6,10c-5.839-67.84-10.88-148.896-16-211c-2.59-31.423-5.816-64.843-8-96
		c-0.668-9.531,1.07-22.685-9-27c3.07,4.994-2.491,5.741-3,10c0.111,3.542,3.306-2.125,3,1c-1.785,1.896-2.795,5.525,0,2
		c-1.596,8.841-2.492,22.247,1,28c0.609-2.391-1.255-7.255,1-8c0,3.667,0,7.333,0,11c-3.057-2.213-2.454,6.712,0,7
		c0.547-1.453-1.168-5.168,1-5c0.583,8.184-4.794,11.03,0,18c0.157-1.177-0.172-2.838,1-3c1.261,6.013-5.078,10.171,0,14
		c0.547-1.453-1.168-5.168,1-5c-0.591,4.257,0.719,6.614,1,10c-2.182,0.637-3.182-2.834-3,1c0.111,3.542,3.306-2.125,3,1
		c-0.595,2.072,1.236,6.569-1,7c0.299-1.625-1.35-2.697-2-1c2.196,7.065,1.762,10.77,2,20c1.44,2.213,2.44-1.259,3,1
		c0.14,2.874-2.779,7.798,0,10c0.17-1.496-0.357-3.69,1-4c-1.061,4.685-2.707,22.872,1,15c-1.665,6.76-3.249,9.379,1,15
		c-0.826,2.513-3.181,7.182,0,12c0.88-3.537-2.569-5.152,1-6c0,3.333,0,6.667,0,10c-1.003,0.003-1.19-0.81-2-1
		c1.503,4.106-0.296,18.242,4,19c-0.171,2.59,0.86,7.953-2,5c4.323,4.011,3.048,13.618,4,21c-3.66-3.091-1.747,6.395,0,7
		c0.575-1.758-1.208-5.875,1-6C66.901,403.459,67.81,410.03,65,409z M326,510c5.517-4.978,1.837-13.733,2-21
		c0.215-9.568,2.874-19.858,4-30c3.183-28.668,4.333-54.525,7-81c2.078,1.119,2.119,1.078,1-1c0.592-19.435,3.696-36.97,4-54
		c4.66-6.041,4.906-15.818,5-24c0.136-11.881-0.048-21.395,1-32c0.698-7.071,1.153-15.616,4-20c-2.858-9.556,0.051-15.312,0-25
		c2.251-0.395-0.149-6.239,3-3c-2.286-11.096,1.702-17.563,0-26c-11.617,8.621-8.734,27.799-10,43
		c-7.834,94.074-17.517,193.809-26,287C326.745,522.745,326.196,516.196,326,510z M85,471c-0.499-2.203-1.609,5.512,1,7
		c0.17-1.496-0.357-3.69,1-4c1.095,6.265-3.631,6.272,0,10c-2.976-0.365-2.089,6.634,1,6c-1.39,7.396,3.648,15.001-1,22
		c1.444,2.382,1.517,2.454,3,3c-1.764,1.736-1.286,9.523,0,15c0.575-1.758-1.208-5.875,1-6c0,3.333,0,6.667,0,10
		c2.284,0.449,5.052,5.525,7,3c-1.394-21.938-3.935-44.101-5-67c-3.468-74.539-10.274-152.91-14-233
		c-0.809-17.379,1.162-35.302-11-39c-1.536,2.797,0.123,8.79-5,8c3.981,12.238,4.068,23.753,2,30c0.309,2.358,3.473,1.86,3,5
		c0.646,28.864,5.646,54.846,4,76c1.22,0.113,2.368,0.299,2,2c-0.712,11.379,2.712,18.621,2,30c-3.602,1.139-0.336,9.096,1,3
		c0.948,24.753,3.521,50.002,4,74c2.385,2.939,2.895,9.883,3,16c0.08,4.635-2.113,10.524-2,11c0.705,2.979,2.825-2.189,3,2
		c0.122,2.908-1.694,2.88-2,5c0.007-0.049,2.263,0.267,2,2c-0.196,1.294-1.611,0.936-2,2C87.463,461.949,86.578,470.315,85,471z
		 M314,531c0.221,0.779,0.838,1.163,2,1c4.126-34.482,4.626-69.32,8-104c7.14-73.383,14.154-147.799,18-222
		c-1.214,1.786-0.183,5.817-2,7c-1.863-6.568,3.319-10.168,1-14c-11.299,5.58-9.87,17.133-11,35
		c-6.336,100.172-17.074,204.681-23,302c12.718-4.282,4.069-29.931,10-41C316.836,507.836,315.678,519.678,314,531z M91,210
		c-2.081,2.19-3.232-0.877-5,1c1.207,4.207-1.615,4.385-2,7c4.294,0.556-2.898,8.755,2,13c-1.323-2.506,4.656-2.428,1-4
		c0.242,1.738,0.342-13.192,2-14c0,6.333,0,12.667,0,19c-3.492-2.762-1.019,7.125-4,8c4.708-1.063-2.021,3.75,3,3
		c2.889-0.444-0.889-7.556,2-8c0.271,3.396-0.774,8.107,1,10c-1.427,0.39-1.687,1.2-3,0c0.943,5.39-2.116,14.783,2,17
		c1.218-3.63-2-7.895,0-9c2.289,1.711,0.367,7.633,1,11c-2.506-0.172-2.428,2.239-4,3c5.7,1.89-1.512,16.952,3,15
		c1.236,3.236-3.236,0.764-2,4c3.924,3.366,1.259,12.603,2,15c2.725-0.838-0.375,13.958,1,15c0.895-3.389,2.816,8.733-1,7
		c4.671,9.406,2.99,22.599,2,33c0.776,0.224,1.973,0.027,2,1c-1.576,13.217,5.318,30.666,0,38c3.353,0.053,5.064,11.044,1,12
		c3.552,2.906-0.33,5.066,1,7c3.003,0.299-0.657,12.774,4,16c0.157-1.177-0.172-2.839,1-3c0,1.667,0,3.333,0,5
		c-3.006-3.021-1.174,3.901-4,4c5.383,0.95-1.284,13.95,4,15c0.547-1.453-1.168-5.169,1-5c-0.132,2.465-0.151,4.818,1,6
		c-3.059,0.046-2.542,1.609-5,4c5.305-1.203-0.072,3.037,0,4c0.004,0.052,1.854,0.324,2,1c0.256,1.186-1.269,3.01-1,5
		c0.073,0.538,1.756,1.369,2,3c0.98,6.551,1.57,21.328,1,24c-0.13,0.609-2.061-0.301-2,1c0.007,0.146,1.9,0.173,2,1
		c1.717,14.181,1.422,30.478,2,46c2.849-1.203,13.598,9.715,12,3c-0.224,0.775-0.027,1.973-1,2c-1.151-1.182-1.132-3.535-1-6
		c1.376-0.043,2.196,0.471,3,1c-0.653-3.714-0.799-8.528-3-8c1.129-1.204,2.854-1.812,2-5c-5.882-2.781,4.634-11.554-2-15
		c-0.157,1.177,0.172,2.839-1,3c1.426-8.59-1.043-17.811,0-25c-0.299,1.625,1.35,2.697,2,1c-2.125-2.574-0.424-7.09-3-2
		c1.702-9.938-1.612-17.038-1-22c0.06-0.486,2.037,0.198,2-1c0.004,0.131-1.869-0.504-2-1c-0.383-1.448,1.22-3.078,1-6
		c-0.147-1.953-2.301-7.955-2-14c1.003-0.003,1.19,0.81,2,1c-3.121-6.389-1.977-16.498-2-23c0.157,1.177-0.172,2.839,1,3
		c-0.963-10.547,0.657-22.878-2-30c0.227,0.608-0.388,2.107-1,2c-0.906-5.286,2.909-11.305-1-11c4.743-11.166-3.405-19.071,0-29
		c-0.299,1.625,1.35,2.697,2,1c-5.268-6.891-2.357-16.754-5-27c1.376-0.043,2.196,0.471,3,1c-0.723-3.056,1.022-3.645,1-6
		c-5.507-3.691,1.823-14.059-4-17c1.464-0.869,3.169-1.497,3-4c-7.902-3.06-2.645-13.343-3-20c0.002,0.035-1.86-0.409-2-1
		c-0.914-3.849,0.708-9.204,0-13c2.052,1.146,4.767-1.57,2-2c-2.315,0.401-2.155-4.298-3-9c1.257,0.219,2.044,1.557,2-1
		c-0.239-1.875-1.646,0.567-2-1c1.966-8.461,2.455-19.365-1-29c3.944,0.611,1.176-5.49,2-8c-3.363-0.384-5.605-6.551-2-8
		c-1.147-1.614-3.926-3.167-2-5c-1.646-1.76-9.374-6.734-9-4C92.008,204.992,90.772,208.228,91,210z M301,320
		c0.001,0.025,1.861,1.376,2,2c0.864,3.891-0.71,10.409,0,13c-6.045-1.701,2.309,8.309-2,13c-0.239-1.086-1.646-2.401-2-1
		c0.964,3.609,3.734,10.792,1,19c-0.204-1.891,0.675-9.88-1-7c1.41,3.822-2.612,7.281,0,9c-0.003-0.556,0.81-1.135,1,0
		c-0.046,10.333-0.954,13.667-1,24c-1.003,0.003-1.19-0.81-2-1c1.801,4.532,0.71,11.957,1,18c-1.158-2.437-4.71,1.115-2,2
		c0.239-1.534,1.646-0.146,2,1c-2.255,0.745-0.391,5.609-1,8c-2.182,0.638-3.182-2.834-3,1c-0.857,4.636,1.574,1.048,2,3
		c-0.316,7.107,0.627,19.636-3,21c1.119,2.394,2.466,18.422-1,13c0.998,4.488,2.723,16.136-1,19c2.727,0.206,1.874,10.174-1,11
		c3.99,12.796-2.933,30.408-1,45c-1.257-0.22-2.044-1.558-2,1c1.684,4.15,1.142,4.667,1,11c5.048-0.285,8.67-1.997,13-3
		c-0.343-12.698,1.197-14.42-1-22c0.395-0.252,1.951,1.121,2,1c1.88-4.606,1.882-21.205,0-24c0.091-1.576,2.551-0.783,2-3
		c-1.129-1.204-2.854-1.812-2-5c1.003-0.003,1.19,0.81,2,1c-1.043-5.15-2.51-8.897,0-14c0.547,1.453-1.169,5.169,1,5
		c1.739-4.954,1.743-12.897-2-13c6.467-5.654,3.77-19.257,3-25c-0.472-3.52,0.645-14.954,3-14c-2.102-2.92-2.482-10.889-1-17
		c0.275-1.135,1.933-1.03,2-2c0.415-5.963-2.239-10.267-1-15c0.034-0.132,1.98,0.126,2,0c0.943-6.228-0.746-6.735-1-11
		c4.021-3.381-0.822-10.42,3-14c-0.459-2.382-3.199-11.432,1-12c-4.734-7.809,5.504-16.975,1-27c0.003,0.556-0.81,1.135-1,0
		c0.387-14.771,3.582-17.264,2-32c1.576-0.091,0.783-2.551,3-2c-0.305-6.305,0.158-11.842,1-17c-2.151-0.849-2.318-3.682-2-7
		c1.44,1.119,2.44,1.078,3-1c-6.036-0.243,2.586-4.267-1-5c-1.047,0.608-3.17-16.251,2-16c-2.784-2.881-2.32-7.15,1-9
		c-5.37-4.546,0.74-16.627-1-25c5.09-3.264-1.332-9.418,0-12c-15.803,5.897-11.347,26.189-14,45c-0.011-1.466,0.378-8.183-1-5
		c-0.773,6.132,3.049,12.918,0,18c-0.595-2.072,1.236-6.569-1-7c-3.774,8.818,3.9,11.514,0,22c-0.271-2.141,0.774-10.668-1-8
		c0.938,6.209-2.845,10.529,2,10c-3.323,2.01,2.434,13.101-4,12c-1.049,12.276,3.317,18.389,0,29
		C304.205,310.545,300.883,314.127,301,320z M270,396c-1.021,6.252,1.646,3.023,3,6c-3.485,46.036-4.944,100.447-8,150
		c8.299,0.966,1.18-13.487,5-17c0,5.333,0,10.667,0,16c2.667,0,5.333,0,8,0c1.055-1.039,2.065-7.141,0-8
		c-0.547,1.453,1.169,5.169-1,5c-1.552-8.11,6.328-18.627,1-21c3.236-3.736-2.375-6.66,1-12c-0.437,1.663,0.139,7.23,1,6
		c2.736-3.911-1.397-16.938-1-23c1,0,2,0,3,0c0-1.667,0-3.333,0-5c-2.994,1.071-1.791-6.441-2-11c1.377-0.043,2.196,0.471,3,1
		c-2.066-7.432-0.18-10.526-2-15c1.427,0.39,1.687,1.2,3,0c-1.152-19.899,2.554-34.547,3-53c-1.177-0.156-2.839,0.172-3-1
		c2.05-4.408,0.445-4.291,4-4c-2.846-6.522,0.184-12.11-2-19c-0.396-2.396,4.555,0.555,3-3c-3.062-1.827-0.408-10.688-1-16
		c0.171,1.496-0.357,3.69,1,4c1.771-10.338,2.761-22.478,0-32c2.747,2.453,2.591-4.06,3-7c-1.122-0.862-3.378-7.387-1-13
		c0.171,1.496-0.357,3.69,1,4c1.89-5.376,0.013-9.463-1-11c6.835-6.482,0.609-26.792,3-35c0.156,1.177-0.172,2.838,1,3
		c3.522-5.666-2.467-11.186,0-17c0.156,1.177-0.172,2.838,1,3c1.916-2.417,0.631-8.036,1-12c-4.563-1.23,0.093,6.76-3,7
		c-1.166-12.241,1.594-11.513,4-18c0.306-3.125-2.889,2.542-3-1c3.326-3.34-1.988-15.322,3-17c-0.938,0.845-2.136,6.375,0,7
		c2.229-6.826-0.604-11.779,0-16c-0.156,1.177,0.172,2.838-1,3c-0.997-4.331,1.117-5.55,2-8c-2.948-3.499-2.908-2.584-5-5
		c-2.887,2.113-6.884,3.116-9,6c2.494,0.712,4.109-4.401,6-1c-16.193,6.473-7.307,38.027-12,56c-0.013-1.531-2.729-3.287-2,0
		c0.294,2.084,2.706-1.484,3,2c-3.351,3.316,2.628,15.961-4,16c-0.473,4.118,2.691-0.962,3,3c-1.367,4.299-0.062,11.271-2,15
		c-3.372-2.818,2.289-8.454-1-11c-0.837,9.172-3.257,22.064-1,31c0.171-1.496-0.357-3.69,1-4c1.556,10.981-1.085,26.18-2,38
		c-1.387-0.613-0.15-3.85-2-4c-1.021,6.252,1.646,3.023,3,6c-1.367,4.299-0.062,11.271-2,15c-1.651-0.016-0.56-2.773-2-3
		c-1.021,6.252,1.646,3.023,3,6c-0.888,5.779-0.29,13.043-2,18C270.613,399.386,271.85,396.15,270,396z M133,333
		c-0.575,1.758,1.208,5.875-1,6c0.638-3.695-1.295-9.962,1-12c0.17,1.496-0.357,3.69,1,4c-0.516-4.994,1.747-20.95-2-26
		c-0.609,2.391,1.255,7.255-1,8c0.46-5.576-1.329-28.973,2-17c-0.943-5.39,2.116-14.783-2-17c-0.595,2.072,1.236,6.569-1,7
		c1.704-2.03-2.645-8.464,1-11c-0.551,0.384,0.918,2.35,1,2c1.47-6.252-0.112-8.367-2-4c0.595-2.072-1.236-6.569,1-7
		c0.157,1.177-0.172,2.838,1,3c-0.907-5.093,2.062-14.062-2-16c-0.609,2.391,1.255,7.255-1,8c1.38-11.133,2.556-24.904,2-35
		c-4.91-0.244,0.347,9.68-3,11c0.903-7.205-1.533-14.239,0-19c-3.758-1.09-3.368-2.527-4-5c-2.775,1.263-12.699,0.583-10,4
		c1.091-2.38,4.909-2.38,6,0c-6.938-2.588-5.602,7.464-8,1c-0.816,4.542-2.244,13.723,0,18c0.095-1.571-0.134-3.467,2-3
		c0.017,9.596,0.379,15.998,1,23c-1.464,2.32-3.169-1.954-3,2c0.157,1.177-0.172,2.838,1,3c-0.729-1.635,1.987-4.35,2-2
		c-0.096,12.56,1.501,23.603,1,34c-2.427-0.573,0.469-6.469-3-6c-0.771,4.367,2.702,7.798,0,11c3.555,1.555,0.604-3.396,3-3
		c2.449,2.292,0.332,9.081-2,4c-0.782,8.444,0.59,17.187,1,26c0.382,8.213-1.927,17.615,2,24c1.109-6.384-2.015-17.135,1-19
		c-0.034,7.7-0.301,15.634,1,22c-1.464,2.32-3.169-1.953-3,2c5.747,0.925,1.346,17.053,4,24c-1.464,2.32-3.169-1.953-3,2
		c6.208-0.288,1.055,16.959,4,23c-2.182,0.638-3.182-2.834-3,1c-0.473,4.299,2.691,1.279,3,3c0.373,6.96-0.922,15.588,1,21
		c-2.182,0.638-3.182-2.834-3,1c0,0.667,0,1.333,0,2c-0.306,3.125,2.889-2.542,3,1c-0.17,1.496,0.357,3.69-1,4
		c-0.095-1.571,0.134-3.468-2-3c0,2,0,4,0,6c1.72,0.395,2.563-1.484,3,0c0.197,10.673,0.412,16.606,1,23
		c-1.464,2.32-3.169-1.953-3,2c1.352,2.427,1.999,0.623,3,2c-0.826,9.898,2.896,21.532-2,23c4.654,2.087,3.735,23.009,2,28
		c0.893,0.203,1.827,0.054,2,1c1.661,9.078-0.536,21.957,1,32c5.615,1.385,11.802,2.198,16,5c2.347-5.124-1.882-1.619-2-5
		c-0.296-2.63,3.88-0.787,3-4c-0.944-1.723-3.696-1.637-3-5c1.257,0.22,2.044,1.558,2-1c-0.239-1.875-1.646,0.567-2-1
		c-1.448-3.781,2.748-1.919,2-5c0.745-3.078-2.745-1.922-2-5c5.952-6.354-5.618-13.64,1-22c-1.697-0.97-2.569-2.764-2-6
		c1.257,0.22,2.044,1.558,2-1c-3.513-1.815-0.988-3.445,0-6c-1.72-0.395-2.563,1.484-3,0c-2.179-6.441,4.787-20.344,0-14
		c0-2,0-4,0-6c1.003-0.003,1.19,0.81,2,1c0.571-4.951-0.422-13.792-3-7c-2.121-7.81,3.617-13.02,1-18c-0.547,1.453,1.168,5.169-1,5
		c0-2.333,0-4.667,0-7c1.257,0.22,2.044,1.558,2-1c-4.428-2.862,3.21-6.256-2-9c-0.17,1.496,0.357,3.69-1,4
		c-2.339-6.204,4.546-18.144,0-14c0.036-3.48-0.561-9.514,2-5c-0.811-7.562,2.169-13.73-1-17c-0.485,1.182-1.066,2.267-2,3
		c1.311-4.368-2.221-9.035,0-11c2.715-0.716-0.715,4.716,2,4c-0.801-3.431,2.234-18.73-2-22c-0.627,3.039,1.28,8.613-1,10
		c-0.641-11.839,5.685-26.711,0-37c-0.654,6.013,1.317,14.65-1,19C131.524,355.266,137.492,342.965,133,333z M262,218
		c-1.812,0.22-6.52,6.123-11,7c-4.775,7.558-0.984,23.683-5,32c2.646,5.876,1.452,11.574,1,18c-1.596,22.682,0.861,53.201-2,76
		c-0.365,2.912-1.915,5.955-2,9c-0.088,3.146,1.734,4.707,2,8c0.598,7.397-2.552,15.765-1,23c-0.013,2.806-2.729-2.381-2,2
		c1.41,6.505,1.452,13.177,1,19c-0.541,6.973,2.19,19.034-2,21c1.314,3.709,1.893,17.646,1,25c-0.189,1.56,0.205,3.476-2,3
		c4.037,19.395-1.132,45.94,0,69c-0.013,2.806-2.729-2.381-2,2c-0.961,11.864,2.811,16.317,1,27c5.552-0.115,9.204-2.13,15-2
		c0.751-4.599-5.557-5.058-1-8c0.17,1.496-0.357,3.69,1,4c0.263-9.222-0.893-21.188,1-25c4.562-9.186-1.848-22.981,2-35
		c0.396-2.396-4.555,0.555-3-3c0.387-5.871,0.777-6.557,3-9c1.898-36.046,4.652-86.01,6-129c0.748-3.081-3.447-1.219-2-5
		c1.001-1.377,1.648,0.427,3-2c0.613-34.662,3.479-61.257,4-93c0.748-3.081-3.447-1.219-2-5c5.082-0.254,1.523-15.463,3-19
		C264.297,228.949,268.185,217.504,262,218z M144,265c0.585,16.661-0.35,27.974-2,39c1.165,0.168,1.086,1.581,1,3
		c0,1.667,0,3.333,0,5c-0.224,1.7,1.127,2.475,1,0c0.619-2.714-1.27-7.937,1-9c-2.535,10.73,5.13,42.604,1,47
		c-0.614,0.653-1.456-2.263-2-2c-0.747,9.409,0.544,19.209,1,29c0.459,9.881-1.999,21.002,2,29c0.627-3.039-1.28-8.613,1-10
		c0.414,7.586-0.981,16.98,1,23c-1.464,2.32-3.169-1.953-3,2c0.467,4.677,1.958,10.448,0,16c2.236,0.431,0.405,4.929,1,7
		c-0.043,1.063,0.471,2.539,1,1c0-1.333,0-2.667,0-4c0.65-5.017-1.311-12.644,1-16c-1.482,9.648,2.979,28.432-2,29
		c4.218,3.856-2.2,10.181,3,11c0,9,0,18,0,27c-1.003,0.003-1.19-0.81-2-1c6.048,7.948-0.25,14.607,2,22c0.575-1.758-1.208-5.875,1-6
		c-0.389,21.874-0.323,29.917,2,51c8.235-0.901,12.241,2.426,18,4c-3.48-2.623,2.029-11.591-3-7c-2.545-6.244,6.206-8.315,1-11
		c-0.157,1.177,0.172,2.839-1,3c0.243-3.386-0.974-12.135,2-7c-1.616-4.74-3.986-13.137-1-20c0.224,0.775,0.027,1.973,1,2
		c-4.213-9.12-2.831-23.836-3-37c2.251,3.562,3.084-3.665,1-4c-4.247,4.607,2.222-8.552,0-9c-2.553,5.369-1.423-6.702,2-7
		c-2.279-1.373-3.759,2.578-4,0c0.761-9.124-1.858-25.086,2-28c-2.118,1.032-3.158-5.393-2-8c0.125-0.283,2.9,1.938,2-1
		c-3.111-5.702,0.132-12.06,0-20c-1.72-0.395-2.563,1.484-3,0c-0.429-9.58-2.488-22.834,0-32c0.311,3.023-1.11,7.777,2,8
		c0-4.333,0-8.667,0-13c-1.966-0.299-1.983,1.351-3,2c-1.831-6.624,1.796-14.612,2-17c0.356-4.182-0.987-7.798-1-12
		c-0.018-5.543,3.797-12.568-1-17c-0.633,3.367,1.289,9.288-1,11c0.667-14.274-1.601-31.196,2-40c-2.737-3.542-4.877-12.824-1-17
		c-4.401-2.962-2.296-10.435,0-14c0.505-6.528-0.792-14.234,0-18c-8.033-9.102,5.869-29.438-11-31c-0.749,4.918-8.901,2.433-10,7
		c-0.663,11.004,1.328,24.661-1,34c0.003-0.555-0.81-1.135-1,0C142.961,261.099,141.318,266.087,144,265z M233,222
		c-5.891,1.895-2.795-1.209-6-2c-1.938,2.729-5.112,4.221-9,5c-1.166,1.833-2.614,3.386-4,5c1.366,5.904-3.872-0.312-3,4
		c-1.016,68.005-2.35,131.779-1,188c2.507-20.704-0.656-55.168,2-79c0.625,32.385-0.564,81.275,0,108c-1.464,2.32-3.169-1.953-3,2
		c0.619,2.714-1.27,7.937,1,9c0.575-1.758-1.208-5.875,1-6c-1.17,21.188,2.479,55.794-2,77c5.058,5.941-0.463,22.463,3,30
		c3.035-2.965,12.965,0.965,16-2c-1.373-43.594,2.474-99.72,2-146c2.72-0.613,1.431-5.236,3-7c-2.23,0.182-1.765-1.062-2-3
		c-1.54-12.69,0.374-33.575,1-46c0.038,11.609,3.464-9.172,2-15c-0.558-2.221-3.332-4.336-2-8c1.371-3.771,1.414,0.535,0-3
		c-2.676-6.689,1.254-32.971,2-22c0.889-16.675-1.516-30.279,0-43c0.609,2.391-1.256,7.255,1,8c1.371-7.984,1.301-35.86,0-43
		c-0.521,2.857-1.479-1.614-2-2c0.261-1.556,2.193-0.693,3,0C235.666,227.333,232.037,226.963,233,222z M174,260
		c0,10.748-0.723,21.393,0,29c0.75,7.885,1.825,20.203-1,25c1.685,0.044,1.761,0.389,2,2c2.146,14.476,0,38.264,0,53
		c0,5.916-1.65,13.673,2,16c0.65-5.017-1.311-12.644,1-16c-0.355,20.978,0.896,43.562-1,63c-0.745,3.078,2.745,1.922,2,5
		c-1.889,0.749-0.694,2.984-3,1c2.083,3.153-0.508,13.219,3,12c0.568,23.766-1.198,49.865,1,72c-0.09,1.576-2.551,0.782-2,3
		c4.637,8.154-2.698,11.811,0,19c0.239-1.086,1.646-2.401,2-1c-0.114,8.017-0.624,10.471,0,18c7.094-0.761,11.425,1.242,18,1
		c1.171-7.417,1.003-10.936-1-12c1.918-10.456,3.142-29.252,2-44c-0.134-1.73-1.459,0.351-2-1c-1.052-2.629,0.006-8.421,1-9
		c0.224,0.776,0.027,1.973,1,2c-0.719-4.813,0.978-11.626,0-15c-0.461-1.591-3.273,1.007-2-2c2.704-8.79,2.576-17.531,0-27
		c3.634-2.907,2.66-8.871,2-16c3.05-0.95,1.774-6.226,2-10c-2.279-1.373-3.759,2.578-4,0c3.342-14.883-1.4-15.673,1-30
		c-1.146,3.146,1.57,2.43,2,4c0,2.333,0,4.667,0,7c-0.725,3.616,1.725,3.616,1,0c0-5,0-10,0-15c-2.884-1.315-1.429-6.965-4-6
		c-1.529-8.862,2.631-12.036,2-20c-0.239-1.875-1.646,0.567-2-1c-1.448-9.448,2.226-13.774,2-22c-0.239-1.875-1.646,0.567-2-1
		c3.611-18.709-0.221-18.961,0-39c1.003-0.003,1.19,0.81,2,1c-3.109-3.423,1.07-2.773,0-9c-5.276-1.744,0.075-13.673,0-13
		c-0.015,0.134-2.689-0.449-2-1c3.102-2.481,0.581-4.995,2-11c-5.236-8.643,0.208-21.868-3-32c2.652,0.319-0.936-5.602,3-4
		c-5.545-5.313,2.864-12.111-7-15c-0.738,3.172-5.718,1.389-9,3c-2.643,1.297-3.534,4.202-6,5c-1.995,4.535,2.236,9.394-2,12
		c-2.157-8.509,3.271-14.704,4-17C171.25,229.774,174,243.027,174,260z M198,250c2.292,0.375,1.333,4,3,5
		c-0.46-3.579,1.047-14.329-1-13C200.998,246.331,198.883,247.549,198,250z M202,274c-1.685-4.004,0.031-16.667-2-17
		C201.168,262.166,197.561,272.106,202,274z M201,298c0.562-0.968,0.522-16.668-1-18C200.653,285.68,198.685,293.982,201,298z
		 M201,322c0.006-4.116,0.875-19.428-1-21C200.656,307.677,198.68,316.986,201,322z M201,366c-0.54-5.148,1.16-17.797-1-18
		C200.54,353.148,198.84,365.797,201,366z M201,389c-0.551-5.47,1.174-18.48-1-19C200.551,375.47,198.826,388.48,201,389z M210,478
		c-0.647-4.686,1.308-11.975-1-15C209.065,467.251,205.633,475.757,210,478z M265,496c-0.09,4.643-1.374,11.479,1,12
		c-1.231-8.912,2.012-18.637,0-25C264.312,485.695,265.101,490.821,265,496z M86,543c0.205-4.205,0.36-8.36-3-9
		C82.795,538.205,82.64,542.36,86,543z M315,546c4.098,0.388,3.746-8.863,2-11C314.404,536.737,314.974,541.641,315,546z M92,547
		c0.034-4.367-0.869-7.798-2-11c-1,0-2,0-3,0C88.911,539.423,86.276,547.391,92,547z M310,549c3.981-0.386,3.783-10.172,2-13
		C309.006,538.006,310.209,544.209,310,549z M125,566c34.092,15.097,88.471,18.997,130,8c2.673-0.994-1.326-8.659,3-8
		c0.022,2.355-1.723,2.944-1,6c4.857-0.143,8.423-1.577,12-3c1.755-3.578-0.155-10.822,2-14c0,4,0,8,0,12
		c2.153,1.653,6.154-1.25,9-2c0-3.667,0-7.333,0-11c-10.089-3.362-17.722,3.325-24,7c-8.432-5.094-15.972,2.988-24,4
		c-4.583,0.577-10.646-1.479-16-1c-5.388,0.481-9.907,3.227-14,3c-6.684-0.37-12.08-4.717-19-4c-3.8,0.394-5.311,2.718-10,3
		c-7.258-4.081-16.621-7.932-28-5c-5.145-5.127-14.725-10.236-25-7c-3.589-1.588-6.282-7.477-11-9c-3.931-1.27-6.668,0.191-10,0
		c-1.621-2.713-3.032-5.635-6-7c0,3.333,0,6.667,0,10c6.109,2.891,9.982,8.018,17,10c0.575-1.758-1.208-5.875,1-6
		c-0.01,2.656,0.378,5.711-1,7c6.021,0.979,8.223,5.776,15,6c0.347-2.759-2.871-7.022,0-9C124.55,559.8,127.591,563.115,125,566z
		 M305,553c2.423-1.944,4.307-9.647,2-13C305.341,542.708,302.019,548.973,305,553z M297,556c5.007,0.007,4.733-5.267,5-10
		c-1.278-0.055-1.385-1.282-3-1C297.756,548.09,297.442,552.109,297,556z M291,560c5.06-1.273,5.16-7.507,5-14
		C288.404,544.093,289.042,555.679,291,560z M281,564c3.073-0.261,4.497-2.17,7-3c-1.208-5.999,3.196-9.526-1-12
		C281.881,553.079,280.244,554.479,281,564z"/>
	<path fill-rule="evenodd" clip-rule="evenodd" d="M69,194c-2.845-2.078-2.847-7.345-3-10c-0.219-3.804,0.957-7.474,0-16
		c-0.127-2.474,1.224-1.7,1,0C67.855,176.549,67.643,184.202,69,194z"/>
	<path fill-rule="evenodd" clip-rule="evenodd" d="M323,408c3.572,0.752,0.51,7.236,0,10c-1.08,3.92,2.315,12.315-2,13
		C322.267,423.934,322.719,416.052,323,408z"/>
	<path fill-rule="evenodd" clip-rule="evenodd" d="M318,468c2.5,1.173,1.326,7.661,1,12c-0.363,4.83-0.223,11.422-3,13
		C317.35,483.305,318.184,479.229,318,468z"/>
	<path fill-rule="evenodd" clip-rule="evenodd" d="M234,22c-0.467,8.467,1.777,14.222,1,23c-20.129-1.871-41.818-2.182-64-2
		c0.194-8.139,0.569-16.098,2-23C192.27,21.73,215.094,19.906,234,22z M179,23c-0.66,3.485-1.146,5.812-1,12
		c17.885,3.024,35.556,2.165,54,3c2.492-3.732,0.12-9.707,0-14C213.465,24.535,197.766,22.234,179,23z M193,38
		c0.169,1.352-5.085,1.999-2,3c6.384-0.2,29.806,2.919,42,0C222.153,37.514,205.732,39.601,193,38z"/>
</g>
</svg>
